<svg width="31" height="19" viewBox="0 0 31 19" fill="none" xmlns="http://www.w3.org/2000/svg">
<path d="M7.93846 5.54607L5.36676 0.933711C5.22096 0.673543 5.31092 0.345925 5.55599 0.194963C5.80106 0.0440014 6.12369 0.130723 6.26328 0.390891L8.86911 5.06428C10.8576 4.12318 13.0943 3.59963 15.5016 3.59963C17.9088 3.59963 20.1455 4.12318 22.134 5.06428L24.7398 0.390891C24.8856 0.130723 25.202 0.0440014 25.4533 0.194963C25.7046 0.345925 25.7884 0.673543 25.6425 0.933711L23.0708 5.54607C27.5008 8.03212 30.5037 12.6798 31 18.1208H0C0.496347 12.6798 3.49925 8.03212 7.93846 5.54607ZM22.6179 13.6145C23.3376 13.6145 23.9177 13.0106 23.9177 12.2687C23.9177 11.5235 23.3345 10.9229 22.6179 10.9229C21.8982 10.9229 21.3181 11.5267 21.3181 12.2687C21.315 13.0074 21.8982 13.6145 22.6179 13.6145ZM8.38517 13.6145C9.10487 13.6145 9.68498 13.0106 9.68498 12.2687C9.68498 11.5235 9.10177 10.9229 8.38517 10.9229C7.66547 10.9229 7.08536 11.5267 7.08536 12.2687C7.08226 13.0074 7.66857 13.6145 8.38517 13.6145Z" fill="white"/>
</svg>
